<svg aria-hidden="true" style="position: absolute; width: 0; height: 0; overflow: hidden;" version="1.1" xmlns="http://www.w3.org/2000/svg" xmlns:xlink="http://www.w3.org/1999/xlink">
<defs>
<symbol id="icon-email" viewBox="0 0 43 32">
<path  d="M38.667 0h-34.667c-2.205 0-4 1.795-4 4v24c0 2.205 1.795 4 4 4h34.667c2.205 0 4-1.795 4-4v-24c0-2.205-1.795-4-4-4zM38.667 2.667c0.181 0 0.355 0.037 0.512 0.104l-17.845 15.467-17.845-15.467c0.151-0.065 0.327-0.104 0.512-0.104h34.667zM38.667 29.333h-34.667c-0.736 0-1.333-0.597-1.333-1.333v0-22.413l17.792 15.421c0.233 0.203 0.539 0.327 0.875 0.327s0.642-0.124 0.876-0.328l-0.002 0.001 17.792-15.421v22.413c0 0.736-0.597 1.333-1.333 1.333v0z"></path>
</symbol>
<symbol id="icon-facebook" viewBox="0 0 32 32">
<path d="M21.328 5.312h2.923v-5.088c-1.232-0.143-2.66-0.224-4.108-0.224-0.052 0-0.104 0-0.156 0l0.008-0c-4.213 0-7.099 2.65-7.099 7.52v4.48h-4.646v5.688h4.646v14.312h5.699v-14.31h4.459l0.707-5.688h-5.168v-3.922c0-1.643 0.443-2.768 2.734-2.768z"></path>
</symbol>
<symbol id="icon-group1" viewBox="0 0 28 32">
<path  d="M4.085 0l4.771 4.517-8.857-0.005v21.915h23.149v-8.379l4.766 4.512v-22.559h-23.83zM22.939 17.517l-13.528-12.807h13.528v12.807zM18.739 23.22h-15.076v-14.738h1.066v13.74h14.011v0.997zM7.224 29.345h0.465l-0.811 1.529v0.891h-0.422v-0.891l-0.813-1.529h0.467l0.557 1.147 0.557-1.147zM7.924 31.765l0.196-0.564h0.938l0.197 0.564h0.439l-0.916-2.42h-0.378l-0.914 2.42h0.437zM8.588 29.859l0.351 1.004h-0.701l0.351-1.004zM10.806 30.804c0.061-0.094 0.181-0.205 0.36-0.334-0.093-0.118-0.159-0.219-0.197-0.302-0.036-0.084-0.054-0.163-0.054-0.241 0-0.19 0.057-0.339 0.173-0.449s0.27-0.166 0.465-0.166l-0.001 0c0.008-0 0.017-0 0.025-0 0.157 0 0.301 0.060 0.408 0.157l0.001 0c0.104 0.091 0.169 0.225 0.169 0.374 0 0.003-0 0.007-0 0.009v-0c0 0.001 0 0.003 0 0.004 0 0.102-0.028 0.197-0.076 0.275l-0.002 0.003c-0.065 0.097-0.149 0.181-0.249 0.249l-0.165 0.12 0.468 0.552c0.067-0.133 0.101-0.28 0.101-0.444h0.351c0 0.298-0.069 0.543-0.209 0.733l0.355 0.421h-0.468l-0.136-0.161c-0.173 0.129-0.379 0.195-0.618 0.195s-0.432-0.063-0.575-0.19c-0.143-0.127-0.214-0.293-0.214-0.497v0c0-0.001 0-0.003 0-0.004 0-0.113 0.034-0.218 0.091-0.303zM11.898 31.34l-0.528-0.624-0.052 0.037c-0.133 0.101-0.2 0.216-0.2 0.346l0-0.001c-0 0.005-0 0.009-0 0.014 0 0.101 0.041 0.193 0.108 0.259l-0-0c0.071 0.066 0.166 0.106 0.27 0.106 0.007 0 0.014-0 0.020-0h0c0.145-0.001 0.278-0.052 0.382-0.136zM11.464 30.267l0.184-0.127 0.052-0.041c0.063-0.055 0.103-0.136 0.103-0.226 0-0.003-0-0.006-0-0.009 0-0.063-0.024-0.116-0.072-0.161l0 0c-0.045-0.042-0.106-0.068-0.173-0.068-0.003 0-0.006 0-0.009 0l0.001 0c-0.003-0-0.007-0-0.010-0-0.071 0-0.134 0.031-0.178 0.081-0.046 0.053-0.070 0.12-0.070 0.201 0 0.093 0.057 0.21 0.172 0.351zM15.404 31.582c-0.166 0.144-0.387 0.216-0.663 0.216-0.193 0-0.363-0.045-0.511-0.136-0.146-0.092-0.259-0.222-0.339-0.39s-0.121-0.364-0.125-0.587v-0.226l0 0.001c-0-0.010-0-0.020-0-0.030 0-0.208 0.045-0.406 0.122-0.576l0.002-0.006c0.074-0.162 0.193-0.299 0.345-0.396 0.152-0.094 0.327-0.142 0.525-0.142 0.267 0 0.482 0.073 0.645 0.218s0.257 0.35 0.285 0.615h-0.419c-0.020-0.174-0.072-0.299-0.153-0.376s-0.2-0.116-0.357-0.116c-0.182 0-0.323 0.067-0.422 0.201-0.097 0.133-0.147 0.328-0.15 0.587v0.214c0 0.262 0.047 0.462 0.14 0.599s0.232 0.206 0.412 0.206c0.165 0 0.289-0.037 0.372-0.112s0.136-0.197 0.158-0.37h0.419c-0.024 0.257-0.12 0.46-0.286 0.605zM17.875 31.243c0.082-0.18 0.123-0.388 0.123-0.625v-0.134c0-0.007 0-0.016 0-0.024 0-0.216-0.047-0.421-0.131-0.605l0.004 0.009c-0.077-0.171-0.199-0.31-0.35-0.406l-0.004-0.002c-0.152-0.095-0.326-0.143-0.524-0.143s-0.372 0.048-0.525 0.144c-0.152 0.095-0.27 0.233-0.354 0.414-0.079 0.175-0.125 0.38-0.125 0.595 0 0.011 0 0.021 0 0.032l-0-0.002v0.136c0.001 0.232 0.043 0.436 0.126 0.613 0.084 0.178 0.203 0.315 0.356 0.411 0.154 0.095 0.329 0.143 0.525 0.143 0.199 0 0.374-0.048 0.526-0.143 0.152-0.097 0.27-0.234 0.352-0.413zM17.425 29.874c0.102 0.143 0.152 0.349 0.152 0.618v0.126c0 0.272-0.050 0.48-0.151 0.622-0.099 0.142-0.242 0.213-0.429 0.213-0.005 0-0.011 0-0.017 0-0.171 0-0.323-0.086-0.413-0.216l-0.001-0.002c-0.104-0.145-0.155-0.351-0.155-0.617v-0.14c0.002-0.26 0.054-0.462 0.156-0.603 0.091-0.13 0.24-0.215 0.409-0.215 0.006 0 0.012 0 0.018 0l-0.001-0c0.187 0 0.33 0.072 0.431 0.214z"></path>
</symbol>
<symbol id="icon-group2" viewBox="0 0 25 32">
<path  d="M10.532 1.806c0.142 0 0.294 0.013 0.446 0.026l0.044 0.004 0.045 0.003c0.762 0.055 1.506 0.172 2.134 0.326v-1.762l0.090 0.020c-0.742-0.191-1.51-0.319-2.339-0.378-0.288-0.022-0.595-0.036-0.91-0.044h-0.267c-1.603 0.006-3.157 0.218-4.51 0.582l-0.127 0.028c-1.69 0.433-3.285 1.101-4.665 1.921v17.475l-0.1 0.051c1.412-0.78 2.932-1.39 4.666-1.83l-0.139 0.031c1.262-0.331 2.572-0.541 3.971-0.619h0.052c0.217-0.011 0.433-0.017 0.655-0.018v-1.79l-0.014 0c-1.766 0.023-3.479 0.263-4.967 0.661-0.602 0.156-1.185 0.326-1.731 0.513l-0.623 0.212v-13.626l0.266-0.128-0.104 0.045c1.994-0.964 4.2-1.558 6.576-1.696l-0.001 0c0.010-0.001 0.019-0.001 0.029-0.001s0.020 0 0.028 0.001c0.247-0.012 0.497-0.018 0.741-0.018h0.28c0.129 0.003 0.258 0.006 0.388 0.014h0.084zM13.633 3.607c0.391 0.030 0.796 0.044 1.205 0.044 1.689-0.007 3.324-0.228 4.881-0.639l-0.135 0.030c1.734-0.442 3.252-1.052 4.665-1.831l-0.101 0.051v17.163c-1.379 0.819-2.975 1.487-4.664 1.921l-0.127 0.028c-1.353 0.363-2.908 0.574-4.511 0.581h-0.004c-0.033 0-0.072 0-0.111 0-1.177 0-2.319-0.147-3.409-0.425l0.095 0.021v-17.275c0.265 0.062 0.537 0.118 0.814 0.164 0.455 0.077 0.934 0.133 1.401 0.167zM22.367 3.74l-0.623 0.209c-0.572 0.193-1.151 0.365-1.731 0.518-1.551 0.415-3.332 0.657-5.169 0.663h-0.004c-0.406 0-0.78-0.011-1.141-0.034l-0.497-0.033v14.017l0.426 0.037c0.395 0.035 0.803 0.052 1.214 0.052 1.45-0.006 2.853-0.198 4.189-0.553l-0.116 0.026c1.221-0.31 2.281-0.702 3.285-1.189l-0.102 0.044 0.266-0.128v-13.63z"></path>
<path  d="M1.684 25.977c-0.167-0.173-0.401-0.281-0.661-0.281-0.011 0-0.023 0-0.034 0.001l0.002-0c-0.004-0-0.009-0-0.014-0-0.139 0-0.272 0.028-0.393 0.078l0.007-0.003c-0.237 0.095-0.42 0.28-0.51 0.512l-0.002 0.006c-0.049 0.123-0.073 0.254-0.071 0.386v2.335c-0.006 0.164 0.026 0.328 0.092 0.479 0.055 0.12 0.135 0.226 0.234 0.313 0.093 0.078 0.202 0.135 0.32 0.166 0.114 0.031 0.231 0.048 0.349 0.048 0.13 0.001 0.258-0.026 0.377-0.081 0.351-0.156 0.591-0.5 0.591-0.901v-0.261h-0.611v0.208c0 0.004 0 0.009 0 0.014 0 0.070-0.013 0.136-0.037 0.198l0.001-0.004c-0.021 0.052-0.051 0.095-0.089 0.132l-0 0c-0.070 0.054-0.159 0.088-0.255 0.089h-0c-0.011 0.001-0.023 0.002-0.036 0.002-0.103 0-0.194-0.050-0.25-0.127l-0.001-0.001c-0.051-0.082-0.082-0.182-0.082-0.289 0-0.008 0-0.016 0.001-0.024l-0 0.001v-2.177c-0.004-0.121 0.022-0.24 0.075-0.349 0.056-0.087 0.153-0.143 0.262-0.143 0.013 0 0.025 0.001 0.038 0.002l-0.001-0c0.003-0 0.007-0 0.012-0 0.107 0 0.201 0.052 0.26 0.131l0.001 0.001c0.063 0.082 0.101 0.187 0.101 0.3 0 0.005-0 0.009-0 0.014v-0.001 0.202h0.604v-0.238c0-0.003 0-0.007 0-0.011 0-0.143-0.027-0.28-0.077-0.405l0.003 0.007c-0.048-0.128-0.117-0.237-0.205-0.329l0 0zM5.31 25.951c-0.186-0.158-0.429-0.255-0.694-0.257h-0c-0.124 0-0.248 0.023-0.364 0.066-0.252 0.090-0.451 0.276-0.557 0.511l-0.002 0.006c-0.062 0.142-0.092 0.297-0.089 0.452v2.239c-0.004 0.158 0.026 0.314 0.089 0.458 0.055 0.121 0.135 0.228 0.236 0.313 0.094 0.086 0.203 0.154 0.322 0.197 0.117 0.043 0.24 0.065 0.364 0.066 0.267-0.001 0.51-0.1 0.695-0.264l-0.001 0.001c0.097-0.087 0.176-0.194 0.23-0.313 0.063-0.144 0.093-0.301 0.089-0.458v-2.239c0-0.006 0-0.013 0-0.020 0-0.156-0.033-0.305-0.092-0.439l0.003 0.007c-0.057-0.128-0.135-0.237-0.23-0.327l-0-0zM5.025 28.969c0.001 0.010 0.002 0.023 0.002 0.035 0 0.114-0.047 0.216-0.123 0.289l-0 0c-0.077 0.065-0.178 0.105-0.287 0.105s-0.21-0.040-0.288-0.105l0.001 0.001c-0.076-0.073-0.123-0.175-0.123-0.289 0-0.012 0.001-0.025 0.002-0.037l-0 0.002v-2.239c-0.001-0.010-0.001-0.022-0.001-0.034 0-0.113 0.047-0.216 0.123-0.289l0-0c0.077-0.065 0.178-0.105 0.287-0.105s0.21 0.040 0.288 0.105l-0.001-0.001c0.076 0.073 0.123 0.175 0.123 0.289 0 0.012-0.001 0.025-0.002 0.037l0-0.002v2.24zM10.072 29.969v-4.24h-0.586l-0.771 2.244h-0.010l-0.777-2.244h-0.58v4.239h0.606v-2.578h0.011l0.593 1.823h0.302l0.598-1.823h0.010v2.578h0.606zM13.513 26.027c-0.093-0.105-0.211-0.185-0.342-0.232-0.124-0.042-0.267-0.066-0.416-0.066-0.008 0-0.016 0-0.024 0l0.001-0h-0.9v4.24h0.604v-1.656h0.311c0.189 0.009 0.376-0.031 0.545-0.116 0.139-0.078 0.251-0.188 0.329-0.32l0.002-0.004c0.070-0.113 0.117-0.238 0.138-0.369 0.021-0.133 0.033-0.287 0.033-0.444 0-0.013-0-0.027-0-0.040l0 0.002c0.006-0.203-0.014-0.407-0.059-0.606-0.043-0.153-0.12-0.284-0.223-0.39l0 0zM13.201 27.319c-0.003 0.081-0.023 0.157-0.057 0.224l0.001-0.003c-0.035 0.065-0.089 0.116-0.154 0.147l-0.002 0.001c-0.075 0.034-0.162 0.054-0.254 0.054-0.011 0-0.022-0-0.033-0.001l0.002 0h-0.276v-1.441h0.311c0.009-0 0.019-0.001 0.029-0.001 0.088 0 0.172 0.020 0.247 0.055l-0.004-0.002c0.062 0.036 0.111 0.090 0.141 0.154l0.001 0.002c0.033 0.074 0.051 0.155 0.053 0.236v0.282c0 0.098 0.006 0.201 0 0.291h-0.006zM16.374 25.729h-0.495l-0.934 4.24h0.604l0.177-0.911h0.823l0.178 0.911h0.604l-0.958-4.24zM15.817 28.481l0.297-1.537h0.011l0.295 1.537h-0.604zM20.277 28.283h-0.011l-0.912-2.554h-0.581v4.24h0.604v-2.55h0.012l0.923 2.549h0.568v-4.239h-0.604v2.554zM23.968 25.729l-0.486 1.686h-0.012l-0.486-1.686h-0.639l0.83 2.448v1.791h0.604v-1.791l0.83-2.447h-0.64zM0 31.166h0.291v0.817h0.198v-0.817h0.289v-0.167h-0.778v0.168zM2.447 30.998l-0.382 0.985h0.21l0.081-0.224h0.392l0.084 0.224h0.215l-0.391-0.985h-0.21zM2.417 31.593l0.134-0.365 0.134 0.365h-0.268zM4.866 31.62h0.228v0.127c-0.063 0.051-0.145 0.082-0.234 0.083h-0c-0.004 0-0.009 0-0.014 0-0.079 0-0.149-0.037-0.195-0.094l-0-0c-0.046-0.065-0.073-0.147-0.073-0.234 0-0.008 0-0.016 0.001-0.023l-0 0.001c0-0.219 0.095-0.329 0.283-0.329 0.006-0.001 0.014-0.001 0.021-0.001 0.097 0 0.178 0.067 0.201 0.157l0 0.001 0.194-0.038c-0.042-0.192-0.18-0.289-0.417-0.289-0.004-0-0.008-0-0.013-0-0.127 0-0.244 0.048-0.331 0.127l0-0c-0.088 0.087-0.143 0.208-0.143 0.342 0 0.013 0 0.026 0.002 0.038l-0-0.002c-0 0.007-0 0.015-0 0.023 0 0.132 0.048 0.254 0.127 0.347l-0.001-0.001c0.087 0.090 0.209 0.146 0.343 0.146 0.011 0 0.021-0 0.032-0.001l-0.001 0c0.005 0 0.010 0 0.016 0 0.155 0 0.296-0.060 0.402-0.157l-0 0v-0.388h-0.426v0.166zM7.337 30.998h-0.199v0.985h0.689v-0.167h-0.49v-0.817zM9.426 30.998h-0.199v0.985h0.199v-0.985zM11.469 31.655l-0.404-0.657h-0.193v0.985h0.185v-0.643l0.396 0.643h0.198v-0.985h-0.182v0.658zM13.315 31.549h0.49v-0.167h-0.49v-0.215h0.527v-0.168h-0.727v0.985h0.747v-0.167h-0.548v-0.266zM17.792 31.386h-0.388v-0.388h-0.197v0.984h0.197v-0.431h0.388v0.431h0.198v-0.985h-0.198v0.388zM19.649 31.549h0.492v-0.167h-0.492v-0.215h0.529v-0.168h-0.726v0.985h0.746v-0.167h-0.548v-0.266zM22.168 31.55c0.171-0.027 0.258-0.118 0.258-0.274 0.001-0.008 0.002-0.018 0.002-0.028 0-0.079-0.038-0.148-0.098-0.191l-0.001-0c-0.073-0.037-0.159-0.059-0.25-0.059-0.014 0-0.027 0-0.040 0.001l0.002-0h-0.417v0.984h0.198v-0.412h0.039c0.005-0 0.010-0 0.016-0 0.039 0 0.076 0.008 0.109 0.023l-0.002-0.001c0.029 0.018 0.053 0.042 0.070 0.072l0.215 0.313h0.236l-0.12-0.192c-0.054-0.096-0.128-0.175-0.215-0.235l-0.002-0.002zM21.969 31.413h-0.146v-0.247h0.156c0.012-0.001 0.027-0.002 0.042-0.002 0.057 0 0.111 0.009 0.163 0.026l-0.004-0.001c0.026 0.024 0.043 0.058 0.043 0.096 0 0.042-0.020 0.080-0.052 0.104l-0 0c-0.049 0.016-0.106 0.025-0.164 0.025-0.013 0-0.026-0-0.039-0.001l0.002 0zM24.068 31.549h0.49v-0.167h-0.49v-0.215h0.529v-0.168h-0.729v0.985h0.747v-0.167h-0.548v-0.266z"></path>
</symbol>
<symbol id="icon-group3" viewBox="0 0 34 32">
<path  d="M5.643 31.315c0.012 0 0.024 0.003 0.035 0.008s0.021 0.011 0.030 0.018l-0-0 0.166 0.158c-0.13 0.129-0.289 0.232-0.468 0.302-0.184 0.069-0.397 0.109-0.62 0.109-0.015 0-0.030-0-0.045-0.001l0.002 0c-0.213 0.004-0.425-0.030-0.622-0.101-0.182-0.066-0.338-0.163-0.47-0.286l0.001 0.001c-0.128-0.121-0.231-0.268-0.301-0.432l-0.003-0.008c-0.067-0.162-0.106-0.35-0.106-0.548 0-0.006 0-0.012 0-0.018v0.001c-0-0.009-0-0.019-0-0.029 0-0.388 0.168-0.737 0.436-0.977l0.001-0.001c0.142-0.124 0.312-0.222 0.498-0.287 0.205-0.069 0.423-0.103 0.642-0.101 0.012-0 0.026-0 0.040-0 0.199 0 0.39 0.034 0.568 0.096l-0.012-0.004c0.165 0.062 0.316 0.149 0.447 0.255l-0.139 0.169c-0.010 0.012-0.022 0.022-0.035 0.030l-0.001 0c-0.014 0.008-0.031 0.013-0.048 0.013-0.003 0-0.005-0-0.008-0l0 0c-0.023-0.001-0.043-0.007-0.062-0.018l0.001 0-0.074-0.046-0.104-0.058c-0.095-0.046-0.205-0.081-0.321-0.1l-0.007-0.001c-0.069-0.012-0.149-0.018-0.23-0.018-0.006 0-0.013 0-0.019 0h0.001c-0.005-0-0.010-0-0.015-0-0.16 0-0.313 0.028-0.455 0.079l0.009-0.003c-0.14 0.049-0.26 0.122-0.363 0.214l0.001-0.001c-0.104 0.098-0.183 0.213-0.235 0.339-0.054 0.128-0.085 0.276-0.085 0.432 0 0.006 0 0.011 0 0.017v-0.001c-0 0.006-0 0.012-0 0.019 0 0.157 0.031 0.307 0.088 0.444l-0.003-0.008c0.051 0.125 0.13 0.239 0.231 0.338 0.095 0.091 0.213 0.164 0.345 0.21 0.136 0.049 0.281 0.073 0.427 0.072 0.085 0.001 0.17-0.004 0.254-0.014 0.211-0.022 0.4-0.106 0.55-0.234l-0.001 0.001c0.021-0.017 0.049-0.028 0.078-0.029h0zM10.441 30.517c0 0.005 0 0.011 0 0.017 0 0.197-0.041 0.384-0.116 0.553l0.003-0.009c-0.074 0.172-0.18 0.317-0.311 0.435l-0.001 0.001c-0.138 0.123-0.302 0.22-0.481 0.283l-0.010 0.003c-0.189 0.064-0.406 0.101-0.632 0.101s-0.443-0.037-0.646-0.105l0.014 0.004c-0.188-0.067-0.351-0.165-0.489-0.288l0.001 0.001c-0.133-0.12-0.24-0.267-0.313-0.432l-0.003-0.008c-0.071-0.166-0.112-0.359-0.112-0.562s0.041-0.396 0.116-0.572l-0.004 0.010c0.071-0.165 0.178-0.315 0.316-0.442 0.139-0.121 0.305-0.215 0.488-0.277 0.188-0.065 0.406-0.103 0.632-0.103s0.443 0.038 0.646 0.107l-0.014-0.004c0.184 0.065 0.351 0.162 0.49 0.286 0.137 0.126 0.244 0.274 0.314 0.435 0.077 0.181 0.115 0.373 0.112 0.565zM10.005 30.517c0-0.007 0-0.015 0-0.024 0-0.154-0.029-0.301-0.082-0.436l0.003 0.008c-0.101-0.26-0.308-0.459-0.566-0.548l-0.007-0.002c-0.137-0.047-0.295-0.074-0.459-0.074s-0.322 0.027-0.469 0.077l0.010-0.003c-0.136 0.049-0.254 0.121-0.352 0.214l0-0c-0.097 0.092-0.174 0.205-0.223 0.331l-0.002 0.006c-0.050 0.134-0.079 0.289-0.079 0.451s0.029 0.317 0.082 0.46l-0.003-0.009c0.101 0.261 0.309 0.46 0.569 0.547l0.007 0.002c0.296 0.097 0.622 0.097 0.918 0 0.133-0.046 0.253-0.119 0.35-0.211 0.1-0.098 0.175-0.213 0.222-0.338 0.056-0.145 0.082-0.298 0.079-0.451zM13.715 30.99l0.043 0.101c0.017-0.036 0.031-0.069 0.048-0.101 0.019-0.039 0.037-0.072 0.056-0.103l-0.002 0.004 1.061-1.677c0.021-0.029 0.040-0.047 0.061-0.053s0.047-0.009 0.073-0.009c0.005 0 0.010 0 0.015 0l-0.001-0h0.314v2.728h-0.372v-2.090c-0.001-0.014-0.002-0.031-0.002-0.047s0.001-0.033 0.002-0.049l-0 0.002-1.069 1.701c-0.015 0.026-0.036 0.047-0.062 0.061l-0.001 0c-0.026 0.014-0.057 0.023-0.090 0.023-0.001 0-0.001 0-0.002 0h-0.060c-0.001 0-0.001 0-0.002 0-0.033 0-0.063-0.008-0.090-0.023l0.001 0c-0.026-0.014-0.047-0.035-0.061-0.061l-0-0.001-1.099-1.711v2.189h-0.359v-2.722h0.313c0.004-0 0.009-0 0.015-0 0.026 0 0.051 0.003 0.075 0.010l-0.002-0c0.026 0.011 0.046 0.030 0.058 0.053l1.084 1.678c0.020 0.028 0.038 0.060 0.053 0.094l0.001 0.004zM17.71 30.855v1.021h-0.414v-2.723h0.926c0.175-0.003 0.349 0.018 0.517 0.059 0.134 0.034 0.259 0.091 0.366 0.17 0.089 0.070 0.159 0.16 0.205 0.262l0.002 0.004c0.050 0.111 0.073 0.23 0.071 0.349 0 0.005 0 0.011 0 0.017 0 0.246-0.117 0.465-0.299 0.603l-0.002 0.001c-0.107 0.082-0.232 0.143-0.368 0.18-0.14 0.040-0.301 0.064-0.468 0.064-0.012 0-0.023-0-0.035-0l-0.501-0.008zM17.71 30.562h0.503c0.109 0.002 0.218-0.013 0.322-0.041 0.089-0.026 0.166-0.066 0.234-0.119l-0.002 0.001c0.117-0.097 0.191-0.241 0.191-0.404 0-0.002 0-0.004-0-0.007v0c0.001-0.009 0.001-0.019 0.001-0.029 0-0.070-0.015-0.136-0.043-0.195l0.001 0.003c-0.035-0.074-0.084-0.136-0.144-0.185l-0.001-0.001c-0.139-0.093-0.31-0.149-0.493-0.149-0.023 0-0.046 0.001-0.069 0.003l0.003-0h-0.503v1.122zM23.294 31.88h-0.328c-0.002 0-0.004 0-0.006 0-0.032 0-0.061-0.009-0.086-0.026l0.001 0c-0.023-0.016-0.042-0.037-0.054-0.062l-0-0.001-0.282-0.658h-1.419l-0.293 0.658c-0.026 0.053-0.079 0.088-0.141 0.088-0.001 0-0.003-0-0.004-0h-0.329l1.246-2.728h0.432l1.263 2.728zM21.237 30.867h1.172l-0.494-1.11c-0.038-0.084-0.069-0.169-0.094-0.256l-0.048 0.142c-0.014 0.043-0.030 0.084-0.046 0.116l-0.49 1.108zM25.089 29.166c0.024 0.011 0.046 0.028 0.062 0.048l1.818 2.056v-2.117h0.372v2.728h-0.207c-0.001 0-0.003 0-0.005 0-0.029 0-0.057-0.006-0.082-0.017l0.001 0c-0.026-0.013-0.048-0.030-0.066-0.050l-0-0-1.816-2.054c0.001 0.014 0.001 0.030 0.001 0.047s-0.001 0.033-0.002 0.049l0-0.002v2.027h-0.372v-2.728h0.22c0.025 0 0.051 0.005 0.075 0.013zM30.402 30.795v1.083h-0.415v-1.082l-1.149-1.643h0.372c0.003-0 0.006-0 0.009-0 0.030 0 0.057 0.009 0.081 0.023l-0.001-0c0.023 0.018 0.042 0.039 0.056 0.062l0.718 1.060c0.029 0.046 0.054 0.087 0.075 0.126s0.038 0.078 0.053 0.115l0.053-0.117c0.021-0.043 0.044-0.084 0.071-0.124l0.709-1.067c0.015-0.022 0.033-0.041 0.053-0.058l0-0c0.023-0.017 0.051-0.027 0.082-0.027 0.003 0 0.006 0 0.008 0l-0-0h0.376l-1.15 1.65zM13.509 24.576c0.181 0.020 0.363 0.036 0.549 0.050 2.803-1.090 5.174-2.872 6.818-5.126s2.485-4.878 2.421-7.546l-3.090-2.683c0.629 2.84 0.335 5.775-0.848 8.478s-3.208 5.067-5.849 6.827z"></path>
<path  d="M12.407 24.451l0.083 0.015c2.822-1.755 4.973-4.203 6.176-7.031s1.402-5.904 0.571-8.83l-4.4-3.822c1.779 3.142 2.496 6.659 2.065 10.141-0.43 3.482-1.989 6.786-4.495 9.528zM27.328 15.106c-0.747 2.931-2.563 5.574-5.177 7.538-0.714 0.543-1.519 1.053-2.367 1.49l-0.092 0.043c2.129-0.543 4.085-1.504 5.718-2.808s2.901-2.917 3.703-4.714l-1.784-1.549z"></path>
<path  d="M26.628 14.674l-2.54-2.207c-0.049 2.517-0.872 4.976-2.385 7.122s-3.66 3.902-6.217 5.084h0.012c0.57 0 1.139-0.030 1.705-0.088 2.39-0.848 4.502-2.197 6.146-3.926s2.771-3.785 3.278-5.985zM12.774 3.17l-3.031-2.636c-2.709 0.91-5.039 2.509-6.686 4.588s-2.531 4.542-2.539 7.066c0.010 2.789 1.090 5.495 3.070 7.69 1.979 2.194 4.744 3.754 7.858 4.43 2.779-2.942 4.407-6.578 4.646-10.379s-0.924-7.57-3.319-10.758zM33.63 14.268c-0.011-3.308-1.528-6.478-4.221-8.818s-6.342-3.658-10.15-3.668c-0.008 0-0.018-0-0.028-0-1.831 0-3.59 0.305-5.231 0.867l0.114-0.034 18.556 16.122c0.605-1.313 0.958-2.849 0.96-4.468v-0.001z"></path>
</symbol>
<symbol id="icon-group4" viewBox="0 0 57 32">
<path  d="M10.973 8.386h-0.002c-1.535 0-2.779 1.105-2.779 2.47v0.001c0 1.364 1.244 2.47 2.779 2.47h0.002c1.535 0 2.779-1.106 2.779-2.47v-0.001c0-1.364-1.244-2.47-2.779-2.47zM31.485 7.597c-0.004-1.894-0.853-3.711-2.36-5.050s-3.55-2.094-5.681-2.099c-2.132 0.003-4.177 0.758-5.684 2.097s-2.357 3.156-2.362 5.051v10.447s16.086-1.592 16.088-10.445v-0.002zM2.56 21.472c0.004 1.318 0.595 2.581 1.644 3.514s2.47 1.457 3.953 1.461c1.483-0.004 2.904-0.529 3.953-1.461s1.64-2.195 1.644-3.512v-7.269s-11.192 1.109-11.192 7.268zM8.156 22.774c-0.29 0-0.573-0.076-0.814-0.22-0.234-0.138-0.42-0.337-0.536-0.576l-0.003-0.008c-0.070-0.146-0.111-0.317-0.111-0.498 0-0.090 0.010-0.178 0.030-0.262l-0.002 0.008c0.056-0.253 0.196-0.485 0.401-0.667s0.466-0.307 0.75-0.356c0.086-0.016 0.185-0.025 0.286-0.025 0.201 0 0.394 0.036 0.572 0.103l-0.011-0.004c0.268 0.099 0.497 0.266 0.658 0.48s0.247 0.466 0.247 0.723c0.001 0.172-0.036 0.342-0.11 0.5-0.079 0.166-0.186 0.307-0.316 0.422l-0.001 0.001c-0.136 0.122-0.298 0.218-0.476 0.284-0.167 0.063-0.36 0.1-0.561 0.1-0 0-0.001 0-0.001 0h0v-0.005zM19.468 22.057h-1.080v1.116h-0.563v-2.731h1.778v0.456h-1.215v0.705h1.080v0.454zM22.171 21.869c0 0.269-0.047 0.504-0.142 0.707s-0.232 0.358-0.41 0.469c-0.167 0.104-0.37 0.165-0.587 0.165-0.007 0-0.014-0-0.021-0h0.001c-0.227 0-0.429-0.054-0.606-0.163-0.179-0.112-0.32-0.271-0.409-0.459l-0.003-0.007c-0.094-0.198-0.149-0.43-0.149-0.675 0-0.008 0-0.016 0-0.024v0.001-0.134c0-0.269 0.049-0.506 0.145-0.709 0.097-0.205 0.234-0.362 0.411-0.47 0.177-0.11 0.38-0.165 0.607-0.165s0.429 0.055 0.605 0.165c0.178 0.109 0.314 0.266 0.411 0.47 0.097 0.204 0.146 0.439 0.146 0.707v0.122zM21.601 21.745c0-0.286-0.051-0.504-0.154-0.653-0.091-0.135-0.244-0.223-0.417-0.223-0.008 0-0.015 0-0.023 0.001l0.001-0c-0.006-0-0.014-0-0.021-0-0.173 0-0.325 0.087-0.415 0.22l-0.001 0.002c-0.102 0.147-0.154 0.361-0.156 0.645v0.133c0 0.278 0.051 0.495 0.154 0.648s0.25 0.23 0.443 0.23c0.007 0 0.014 0 0.022 0 0.172 0 0.323-0.087 0.412-0.22l0.001-0.002c0.101-0.148 0.152-0.365 0.154-0.649v-0.133zM23.995 22.456c0-0.005 0-0.010 0-0.016 0-0.092-0.044-0.175-0.112-0.227l-0.001-0c-0.075-0.058-0.21-0.118-0.405-0.18-0.18-0.056-0.333-0.12-0.479-0.195l0.016 0.008c-0.31-0.168-0.465-0.394-0.465-0.677 0-0.147 0.041-0.279 0.124-0.394 0.084-0.116 0.204-0.207 0.358-0.272 0.156-0.065 0.332-0.097 0.525-0.097 0.195 0 0.369 0.035 0.522 0.107 0.152 0.070 0.271 0.169 0.354 0.298 0.085 0.128 0.128 0.275 0.128 0.438h-0.563c0-0.125-0.038-0.222-0.118-0.291-0.079-0.070-0.189-0.105-0.332-0.105-0.138 0-0.244 0.029-0.321 0.088-0.070 0.050-0.115 0.131-0.115 0.222 0 0.002 0 0.004 0 0.007v-0c0 0.089 0.045 0.163 0.133 0.223 0.090 0.060 0.222 0.116 0.396 0.168 0.32 0.096 0.553 0.216 0.7 0.358s0.22 0.32 0.22 0.532c0 0.236-0.090 0.422-0.269 0.557s-0.419 0.201-0.721 0.201c-0.21 0-0.401-0.038-0.574-0.115-0.162-0.069-0.296-0.177-0.394-0.313l-0.002-0.003c-0.084-0.126-0.135-0.281-0.135-0.448 0-0.006 0-0.012 0-0.018l-0 0.001h0.564c0 0.301 0.18 0.452 0.54 0.452 0.134 0 0.238-0.027 0.314-0.081 0.068-0.049 0.112-0.128 0.112-0.218 0-0.004-0-0.007-0-0.011l0 0.001zM26.997 20.898h-0.836v2.275h-0.563v-2.275h-0.824v-0.456h2.223v0.456zM28.962 21.989h-1.080v0.732h1.267v0.452h-1.83v-2.731h1.827v0.456h-1.264v0.651h1.080v0.44zM30.49 22.173h-0.448v1h-0.563v-2.731h1.014c0.323 0 0.572 0.072 0.746 0.216s0.262 0.347 0.262 0.609c0 0.186-0.040 0.342-0.122 0.467-0.090 0.131-0.215 0.233-0.36 0.294l-0.005 0.002 0.59 1.116v0.026h-0.604l-0.512-0.998zM30.042 21.717h0.454c0.141 0 0.25-0.035 0.328-0.106 0.072-0.071 0.116-0.169 0.116-0.277 0-0.007-0-0.015-0.001-0.022l0 0.001c0-0.129-0.036-0.23-0.11-0.304s-0.184-0.111-0.336-0.111h-0.452v0.819zM33.451 22.211v0.962h-0.563v-2.731h1.065c0.205 0 0.385 0.038 0.54 0.113 0.156 0.075 0.276 0.182 0.36 0.321 0.083 0.138 0.125 0.294 0.125 0.47 0 0.268-0.092 0.479-0.275 0.634-0.183 0.154-0.436 0.231-0.76 0.231h-0.493zM33.451 21.755h0.502c0.149 0 0.262-0.035 0.339-0.105 0.079-0.070 0.118-0.17 0.118-0.3 0-0.006 0-0.013 0-0.020 0-0.117-0.045-0.224-0.118-0.305l0 0c-0.079-0.082-0.188-0.125-0.326-0.127h-0.516v0.858zM37.009 21.989h-1.080v0.732h1.267v0.452h-1.83v-2.731h1.827v0.456h-1.264v0.651h1.080v0.44zM39.62 20.898h-0.836v2.275h-0.563v-2.275h-0.825v-0.456h2.224v0.456zM41.585 21.989h-1.079v0.732h1.267v0.452h-1.83v-2.731h1.827v0.456h-1.263v0.651h1.080v0.44zM43.113 22.173h-0.448v1h-0.563v-2.731h1.015c0.323 0 0.571 0.072 0.746 0.216s0.262 0.347 0.262 0.609c0 0.186-0.041 0.342-0.122 0.467-0.090 0.131-0.215 0.233-0.361 0.294l-0.005 0.002 0.591 1.116v0.026h-0.604l-0.512-0.998zM42.665 21.717h0.454c0.141 0 0.25-0.035 0.328-0.106 0.072-0.071 0.117-0.169 0.117-0.278 0-0.007-0-0.014-0.001-0.021l0 0.001c0-0.129-0.036-0.23-0.111-0.304-0.072-0.074-0.184-0.111-0.335-0.111h-0.452v0.819zM45.971 22.456c0-0.005 0-0.010 0-0.016 0-0.093-0.044-0.175-0.112-0.227l-0.001-0c-0.075-0.058-0.21-0.118-0.405-0.18-0.18-0.056-0.333-0.12-0.479-0.195l0.016 0.008c-0.31-0.168-0.465-0.394-0.465-0.677 0-0.147 0.042-0.279 0.124-0.394 0.084-0.116 0.204-0.207 0.358-0.272 0.156-0.065 0.332-0.097 0.525-0.097 0.195 0 0.369 0.035 0.522 0.107 0.152 0.070 0.271 0.169 0.354 0.298 0.085 0.128 0.128 0.275 0.128 0.438h-0.563c0-0.125-0.038-0.222-0.118-0.291-0.079-0.070-0.189-0.105-0.332-0.105-0.138 0-0.244 0.029-0.321 0.088-0.070 0.050-0.115 0.131-0.115 0.223 0 0.002 0 0.004 0 0.006v-0c0 0.089 0.045 0.163 0.134 0.223s0.222 0.116 0.396 0.168c0.32 0.096 0.553 0.216 0.7 0.358s0.22 0.32 0.22 0.532c0 0.236-0.090 0.422-0.269 0.557s-0.419 0.201-0.721 0.201c-0.21 0-0.401-0.038-0.574-0.115-0.162-0.069-0.296-0.177-0.394-0.313l-0.002-0.003c-0.084-0.126-0.135-0.281-0.135-0.448 0-0.006 0-0.012 0-0.018l-0 0.001h0.564c0 0.301 0.18 0.452 0.54 0.452 0.134 0 0.238-0.027 0.313-0.081 0.069-0.049 0.113-0.128 0.113-0.218 0-0.004-0-0.007-0-0.011l0 0z"></path>
</symbol>
<symbol id="icon-group5" viewBox="0 0 43 32">
<path  d="M3.239 26.373c0.166 0.188 0.254 0.424 0.25 0.665 0.001 0.015 0.001 0.033 0.001 0.050 0 0.149-0.033 0.29-0.093 0.416l0.003-0.006c-0.072 0.152-0.172 0.279-0.296 0.378l-0.002 0.002c-0.282 0.194-0.631 0.31-1.007 0.31-0.041 0-0.082-0.001-0.123-0.004l0.006 0h-1.977v-4.214h1.936c0.034-0.002 0.074-0.004 0.115-0.004 0.356 0 0.688 0.106 0.965 0.287l-0.007-0.004c0.125 0.097 0.225 0.218 0.289 0.354 0.065 0.138 0.095 0.286 0.086 0.436 0.011 0.232-0.068 0.461-0.225 0.644-0.15 0.168-0.358 0.283-0.59 0.33 0.262 0.044 0.499 0.172 0.667 0.361zM0.92 25.737h0.828c0.188 0.012 0.374-0.037 0.526-0.14 0.060-0.050 0.108-0.113 0.14-0.184l0.001-0.003c0.024-0.054 0.038-0.118 0.038-0.185 0-0.014-0.001-0.028-0.002-0.042l0 0.002c0.001-0.011 0.001-0.023 0.001-0.035 0-0.068-0.014-0.133-0.040-0.192l0.001 0.003c-0.033-0.075-0.079-0.137-0.138-0.187l-0.001-0.001c-0.134-0.091-0.298-0.145-0.476-0.145-0.023 0-0.046 0.001-0.069 0.003l0.003-0h-0.815v1.106zM2.355 27.353c0.065-0.051 0.116-0.116 0.151-0.19l0.001-0.003c0.028-0.059 0.044-0.128 0.044-0.202 0-0.012-0-0.023-0.001-0.035l0 0.002c0.001-0.009 0.001-0.020 0.001-0.031 0-0.075-0.017-0.147-0.047-0.21l0.001 0.003c-0.037-0.078-0.090-0.143-0.154-0.193l-0.001-0.001c-0.142-0.097-0.318-0.154-0.507-0.154-0.019 0-0.039 0.001-0.058 0.002l0.003-0h-0.868v1.16h0.88c0.197 0.010 0.394-0.041 0.556-0.146zM7.197 28.185l-1.076-1.648h-0.405v1.648h-0.927v-4.215h1.755c0.037-0.003 0.081-0.004 0.125-0.004 0.413 0 0.794 0.136 1.1 0.366l-0.005-0.003c0.245 0.229 0.394 0.53 0.417 0.85 0.002 0.026 0.003 0.057 0.003 0.088 0 0.307-0.109 0.589-0.291 0.808l0.002-0.002c-0.218 0.224-0.506 0.378-0.829 0.427l-0.008 0.001 1.147 1.684h-1.008zM5.715 25.963h0.758c0.526 0 0.79-0.212 0.79-0.638 0.001-0.010 0.001-0.022 0.001-0.034 0-0.080-0.016-0.156-0.045-0.225l0.001 0.004c-0.036-0.086-0.087-0.159-0.15-0.218l-0-0c-0.144-0.109-0.326-0.174-0.523-0.174-0.026 0-0.051 0.001-0.077 0.003l0.003-0h-0.767l0.009 1.283zM12.262 27.336h-1.846l-0.326 0.849h-0.972l1.695-4.168h1.051l1.689 4.168h-0.971l-0.319-0.848zM12.015 26.698l-0.675-1.779-0.675 1.779h1.349zM18.602 28.185h-0.919l-2.063-2.866v2.866h-0.918v-4.216h0.918l2.063 2.883v-2.883h0.919v4.216zM23.852 27.176c-0.191 0.318-0.48 0.577-0.833 0.744-0.358 0.168-0.777 0.267-1.219 0.267-0.026 0-0.053-0-0.079-0.001l0.004 0h-1.637v-4.215h1.637c0.023-0.001 0.050-0.001 0.077-0.001 0.441 0 0.859 0.096 1.235 0.267l-0.019-0.008c0.352 0.163 0.642 0.419 0.832 0.735 0.189 0.343 0.288 0.722 0.288 1.106s-0.099 0.763-0.288 1.106zM22.8 27.075c0.25-0.261 0.404-0.616 0.406-1.006v-0c0-0.369-0.144-0.726-0.406-1.006-0.285-0.226-0.65-0.362-1.047-0.362-0.037 0-0.074 0.001-0.11 0.004l0.005-0h-0.639v2.729h0.639c0.032 0.002 0.069 0.003 0.106 0.003 0.396 0 0.761-0.136 1.050-0.364l-0.004 0.003zM12.838 0.522s11.873 4.104 11.621 10.043v10.045s-11.864-4.106-11.617-10.045l-0.004-10.043zM35.037 18.259c2.243-1.413 4.836-2.288 7.544-2.545v-3.146c-3.12 1.102-5.767 3.098-7.544 5.691z"></path>
<path  d="M33.69 19.207c1.835-3.384 5.017-5.995 8.891-7.297v-9.061s-16.909 5.846-16.552 14.304v14.302s0.754-0.261 1.939-0.752c0-0.457 0-0.918 0.054-1.382 0.349-3.926 2.388-7.564 5.667-10.115z"></path>
<path  d="M32.082 24.52c0.089-0.992 0.287-1.973 0.592-2.928-2.043 2.203-3.279 4.936-3.536 7.816-0.025 0.272-0.039 0.543-0.045 0.824 1.41-0.617 2.478-1.142 3.524-1.703l-0.273 0.133c-0.3-1.362-0.388-2.757-0.263-4.142zM32.754 24.571c-0.033 0.348-0.052 0.752-0.052 1.161 0 0.917 0.095 1.811 0.276 2.674l-0.015-0.084c4.62-2.531 9.811-6.442 9.61-11.168v-0.412c-3.301 0.338-6.388 1.659-8.79 3.76-0.53 1.19-0.895 2.571-1.026 4.019l-0.004 0.051z"></path>
</symbol>
<symbol id="icon-group6" viewBox="0 0 62 32">
<path  d="M31.049 12.926c-0.23-0.297-0.369-0.675-0.369-1.085 0-0.041 0.001-0.081 0.004-0.121l-0 0.005v-1.741c0-0.533 0.121-0.939 0.363-1.217 0.241-0.278 0.657-0.415 1.247-0.414 0.554 0 0.947 0.118 1.179 0.354 0.254 0.301 0.377 0.67 0.349 1.041v0.409h-0.99v-0.415c0.003-0.135-0.006-0.271-0.029-0.405-0.017-0.098-0.068-0.182-0.141-0.24l-0.001-0.001c-0.089-0.060-0.199-0.095-0.316-0.095-0.015 0-0.030 0.001-0.044 0.002l0.002-0c-0.013-0.001-0.028-0.002-0.043-0.002-0.125 0-0.24 0.038-0.337 0.102l0.002-0.001c-0.082 0.066-0.141 0.158-0.164 0.263l-0.001 0.003c-0.025 0.119-0.040 0.256-0.040 0.397 0 0.012 0 0.024 0 0.035l-0-0.002v2.113c-0.016 0.203 0.028 0.408 0.127 0.593 0.051 0.064 0.118 0.113 0.195 0.143l0.003 0.001c0.058 0.023 0.125 0.037 0.196 0.037 0.021 0 0.042-0.001 0.063-0.004l-0.002 0c0.012 0.001 0.027 0.002 0.042 0.002 0.115 0 0.222-0.036 0.31-0.098l-0.002 0.001c0.076-0.064 0.13-0.153 0.148-0.254l0-0.003c0.023-0.14 0.034-0.282 0.031-0.423v-0.429h0.991v0.391c0.002 0.031 0.003 0.067 0.003 0.103 0 0.376-0.13 0.722-0.348 0.994l0.002-0.003c-0.228 0.258-0.616 0.388-1.186 0.388s-1.001-0.138-1.245-0.425zM35.174 12.944c-0.251-0.272-0.376-0.666-0.376-1.188v-1.831c0-0.517 0.125-0.909 0.376-1.174s0.668-0.398 1.255-0.397c0.583 0 0.999 0.133 1.249 0.397 0.25 0.266 0.377 0.657 0.377 1.174v1.831c0 0.517-0.127 0.914-0.382 1.187s-0.668 0.409-1.245 0.409-1.003-0.138-1.256-0.407zM36.891 12.504c0.090-0.169 0.13-0.356 0.119-0.542v-2.242c0.001-0.018 0.002-0.039 0.002-0.060 0-0.172-0.044-0.335-0.121-0.476l0.003 0.005c-0.052-0.065-0.121-0.115-0.199-0.144l-0.003-0.001c-0.058-0.023-0.124-0.036-0.194-0.036-0.024 0-0.047 0.002-0.070 0.004l0.003-0c-0.020-0.003-0.043-0.004-0.067-0.004-0.070 0-0.137 0.013-0.199 0.037l0.004-0.001c-0.082 0.031-0.151 0.081-0.203 0.145l-0.001 0.001c-0.091 0.165-0.131 0.348-0.119 0.531v2.252c-0.012 0.187 0.028 0.373 0.119 0.542 0.057 0.057 0.129 0.103 0.209 0.134 0.075 0.030 0.163 0.048 0.255 0.048s0.179-0.018 0.259-0.050l-0.005 0.002c0.080-0.031 0.151-0.077 0.209-0.134v-0.011zM39.248 8.407h1.066l0.802 3.378 0.821-3.378h1.037l0.105 4.876h-0.767l-0.082-3.389-0.792 3.389h-0.616l-0.82-3.402-0.076 3.402h-0.775l0.097-4.876zM44.275 8.407h1.662c0.957 0 1.436 0.461 1.436 1.384 0 0.884-0.504 1.326-1.512 1.325h-0.566v2.167h-1.026l0.006-4.877zM45.694 10.491c0.101 0.011 0.204 0.004 0.302-0.024 0.097-0.027 0.187-0.071 0.262-0.13 0.118-0.165 0.17-0.358 0.148-0.551 0.001-0.016 0.001-0.035 0.001-0.054 0-0.138-0.018-0.272-0.053-0.4l0.002 0.011c-0.016-0.052-0.042-0.097-0.076-0.134l0 0c-0.036-0.040-0.079-0.073-0.127-0.097l-0.002-0.001c-0.119-0.050-0.258-0.080-0.404-0.080-0.019 0-0.038 0.001-0.056 0.001l0.003-0h-0.398v1.457h0.398zM48.851 8.407h1.101l1.13 4.876h-0.956l-0.223-1.124h-0.982l-0.229 1.124h-0.97l1.13-4.876zM49.793 11.594l-0.384-2.047-0.383 2.047h0.767zM51.995 8.407h0.718l1.374 2.782v-2.782h0.851v4.876h-0.683l-1.383-2.904v2.904h-0.88l0.002-4.876zM56.932 11.423l-1.142-3.010h0.962l0.697 1.934 0.654-1.934h0.942l-1.128 3.010v1.859h-0.984v-1.86zM32.633 15.416v0.255h-0.837v1.982h-0.351v-1.982h-0.841v-0.255h2.029zM35.256 17.652h-0.271c-0.002 0-0.005 0-0.008 0-0.026 0-0.049-0.008-0.069-0.022l0 0c-0.020-0.012-0.035-0.030-0.044-0.051l-0-0.001-0.242-0.531h-1.161l-0.242 0.531c-0.008 0.024-0.021 0.044-0.037 0.060l-0 0c-0.020 0.013-0.044 0.021-0.070 0.021-0.002 0-0.004-0-0.006-0h-0.27l1.026-2.236h0.356l1.038 2.228zM33.558 16.822h0.968l-0.411-0.911c-0.026-0.057-0.052-0.127-0.073-0.199l-0.003-0.011c-0.014 0.042-0.027 0.083-0.039 0.119l-0.037 0.094-0.406 0.909zM37.024 17.432c0.065 0.003 0.129 0.003 0.193 0 0.055-0.005 0.11-0.014 0.164-0.027 0.050-0.010 0.1-0.024 0.148-0.040 0.045-0.016 0.091-0.036 0.137-0.055v-0.503h-0.41c-0.001 0-0.002 0-0.004 0-0.020 0-0.038-0.007-0.052-0.018l0 0c-0.007-0.005-0.012-0.011-0.016-0.018l-0-0c-0.003-0.006-0.005-0.013-0.005-0.020 0-0.001 0-0.001 0-0.002v0-0.171h0.796v0.857c-0.124 0.077-0.268 0.14-0.422 0.179l-0.011 0.002c-0.085 0.022-0.17 0.037-0.257 0.047-0.1 0.009-0.199 0.014-0.299 0.014-0.004 0-0.008 0-0.013 0-0.18 0-0.354-0.031-0.515-0.087l0.011 0.003c-0.158-0.055-0.295-0.134-0.412-0.235l0.002 0.001c-0.11-0.097-0.199-0.215-0.262-0.347l-0.003-0.007c-0.060-0.132-0.094-0.287-0.094-0.449 0-0.005 0-0.011 0-0.016v0.001c-0-0.004-0-0.009-0-0.014 0-0.164 0.034-0.32 0.095-0.461l-0.003 0.008c0.059-0.133 0.149-0.254 0.264-0.354 0.117-0.101 0.257-0.179 0.411-0.232 0.175-0.057 0.362-0.086 0.549-0.083 0.095 0 0.191 0.006 0.285 0.019 0.083 0.012 0.165 0.031 0.244 0.057 0.072 0.023 0.141 0.053 0.205 0.089 0.063 0.035 0.123 0.074 0.179 0.117l-0.098 0.138c-0.008 0.013-0.020 0.023-0.033 0.030l-0 0c-0.014 0.007-0.030 0.012-0.047 0.012h-0c-0.023-0.001-0.045-0.007-0.064-0.018l0.001 0c-0.042-0.020-0.075-0.037-0.107-0.056l0.006 0.003c-0.038-0.021-0.084-0.042-0.131-0.058l-0.006-0.002c-0.052-0.019-0.116-0.036-0.181-0.048l-0.008-0.001c-0.074-0.012-0.16-0.019-0.247-0.019-0.005 0-0.010 0-0.014 0h0.001c-0.004-0-0.008-0-0.012-0-0.137 0-0.269 0.023-0.392 0.065l0.009-0.003c-0.114 0.039-0.217 0.1-0.302 0.177-0.081 0.076-0.146 0.169-0.188 0.273l-0.002 0.005c-0.044 0.111-0.069 0.239-0.069 0.373s0.025 0.262 0.071 0.38l-0.002-0.007c0.045 0.105 0.115 0.201 0.205 0.282 0.084 0.077 0.186 0.137 0.299 0.177 0.13 0.039 0.269 0.054 0.406 0.044zM40.293 17.397h1.12v0.255h-1.462v-2.236h0.35l-0.008 1.982zM42.578 17.652h-0.35v-2.236h0.35v2.236zM43.883 15.426c0.021 0.010 0.039 0.024 0.054 0.040l0 0 1.499 1.686c-0.001-0.012-0.002-0.026-0.002-0.040s0.001-0.028 0.002-0.042l-0 0.002v-1.666h0.306v2.246h-0.176c-0.003 0-0.007 0-0.011 0-0.023 0-0.046-0.005-0.066-0.014l0.001 0c-0.021-0.011-0.039-0.025-0.055-0.042l-0-0-1.497-1.685v1.739h-0.293v-2.236h0.182c0.020 0 0.040 0.004 0.057 0.010zM48.324 15.416v0.246h-1.243v0.738h1.007v0.237h-1.007v0.764h1.243v0.246h-1.604v-2.231h1.604zM11.569 1.604l15.574 3.818v13.378l-15.574-3.816v-13.381zM10.57 0.463v15.171l17.57 4.309v-15.169l-17.569-4.31z"></path>
<path  d="M19.987 26.984l-17.572-4.312v-15.169l17.572 4.31v15.17z"></path>
<path  d="M10.862 1.432l15.371 3.77-6.537 5.645-15.373-3.772 6.539-5.644zM10.57 0.463l-8.155 7.040 17.572 4.311 8.153-7.042-17.57-4.309zM20.976 26.131l7.165-6.188-7.166-1.757v7.946z"></path>
</symbol>
<symbol id="icon-instagram" viewBox="0 0 32 32">
<path  d="M31.968 9.408c-0.074-1.701-0.349-2.869-0.742-3.882-0.424-1.111-1.054-2.059-1.85-2.837l-0.001-0.001c-0.78-0.792-1.724-1.419-2.778-1.827l-0.054-0.018c-1.019-0.394-2.181-0.667-3.882-0.742-1.712-0.082-2.256-0.101-6.602-0.101-4.344 0-4.888 0.019-6.595 0.094-1.699 0.074-2.869 0.349-3.88 0.742-1.112 0.424-2.060 1.054-2.839 1.85l-0.001 0.001c-0.791 0.78-1.418 1.724-1.825 2.778l-0.018 0.054c-0.395 1.019-0.669 2.181-0.744 3.882-0.082 1.712-0.101 2.256-0.101 6.602 0 4.344 0.019 4.888 0.094 6.595 0.075 1.701 0.35 2.869 0.744 3.882 0.426 1.11 1.055 2.057 1.849 2.837l0.001 0.001c0.8 0.813 1.77 1.443 2.832 1.843 1.019 0.395 2.182 0.67 3.882 0.744 1.707 0.075 2.251 0.094 6.595 0.094 4.346 0 4.89-0.019 6.595-0.094 1.701-0.074 2.869-0.349 3.882-0.742 2.157-0.85 3.833-2.526 4.664-4.628l0.019-0.055c0.394-1.019 0.669-2.182 0.744-3.882 0.075-1.707 0.093-2.251 0.093-6.595s-0.006-4.888-0.080-6.595zM29.088 22.474c-0.070 1.563-0.333 2.406-0.55 2.97-0.552 1.399-1.64 2.486-3.004 3.024l-0.036 0.012c-0.56 0.219-1.411 0.482-2.968 0.55-1.688 0.075-2.194 0.094-6.464 0.094-4.269 0-4.782-0.019-6.464-0.094-1.563-0.069-2.406-0.331-2.97-0.55-0.721-0.269-1.334-0.676-1.836-1.192l-0.001-0.001c-0.517-0.503-0.924-1.117-1.184-1.803l-0.011-0.034c-0.218-0.563-0.48-1.413-0.549-2.97-0.075-1.688-0.094-2.195-0.094-6.464 0-4.27 0.019-4.784 0.094-6.464 0.069-1.563 0.331-2.406 0.549-2.97 0.269-0.722 0.678-1.337 1.198-1.837l0.002-0.002c0.504-0.517 1.119-0.923 1.806-1.182l0.034-0.011c0.56-0.219 1.411-0.48 2.968-0.55 1.688-0.074 2.195-0.093 6.464-0.093 4.275 0 4.782 0.019 6.464 0.093 1.563 0.069 2.406 0.331 2.97 0.55 0.693 0.256 1.325 0.662 1.837 1.194 0.531 0.52 0.938 1.144 1.195 1.84 0.218 0.56 0.48 1.411 0.549 2.968 0.075 1.688 0.094 2.194 0.094 6.464 0 4.269-0.019 4.768-0.094 6.458z"></path>
<path  d="M16.059 7.782c-4.539 0.002-8.218 3.682-8.219 8.221v0c0.091 4.471 3.737 8.060 8.221 8.060s8.13-3.589 8.221-8.052l0-0.009c-0.001-4.54-3.681-8.22-8.221-8.221h-0zM16.059 21.334c-2.945-0-5.332-2.388-5.332-5.333s2.388-5.333 5.333-5.333c0 0 0.001 0 0.001 0h-0c2.946 0 5.334 2.388 5.334 5.334s-2.388 5.334-5.334 5.334v0zM26.525 7.458c0 1.060-0.86 1.92-1.92 1.92s-1.92-0.86-1.92-1.92v0c0-1.060 0.86-1.92 1.92-1.92s1.92 0.86 1.92 1.92v0z"></path>
</symbol>
<symbol id="icon-linkedin" viewBox="0 0 32 32">
<path  d="M31.992 32h0.008v-11.738c0-5.741-1.237-10.163-7.947-10.163-3.227 0-5.392 1.77-6.277 3.45h-0.093v-2.914h-6.365v21.363h6.627v-10.578c0-2.786 0.528-5.48 3.978-5.48 3.398 0 3.448 3.179 3.448 5.658v10.402h6.621zM0.528 10.635h6.635v21.365h-6.635v-21.365zM3.843 0c-2.123 0-3.843 1.721-3.843 3.843v0c0 2.12 1.722 3.878 3.843 3.878 2.12 0 3.842-1.757 3.842-3.878s-1.72-3.841-3.841-3.843h-0z"></path>
</symbol>
<symbol id="icon-smartphone" viewBox="0 0 20 32">
<path  d="M17 0h-14c-1.654 0-3 1.346-3 3v26c0 1.654 1.346 3 3 3h14c1.654 0 3-1.346 3-3v-26c0-1.654-1.346-3-3-3zM3 2h14c0.552 0 1 0.448 1 1v0 21h-16v-21c0-0.552 0.448-1 1-1v0zM17 30h-14c-0.552 0-1-0.448-1-1v0-3h16v3c0 0.552-0.448 1-1 1v0z"></path>
<path  d="M4.708 27.478c0.18 0.163 0.293 0.399 0.293 0.66s-0.113 0.497-0.292 0.659l-0.001 0.001c-0.186 0.17-0.435 0.275-0.708 0.275s-0.522-0.104-0.709-0.275l0.001 0.001c-0.18-0.163-0.293-0.399-0.293-0.66s0.113-0.497 0.292-0.659l0.001-0.001c0.186-0.17 0.435-0.275 0.708-0.275s0.522 0.104 0.709 0.275l-0.001-0.001z"></path>
</symbol>
<symbol id="icon-twitter" viewBox="0 0 32 32">
<path  d="M32 6.078c-1.1 0.493-2.376 0.857-3.713 1.028l-0.068 0.007c1.36-0.817 2.382-2.078 2.873-3.579l0.013-0.046c-1.197 0.722-2.591 1.273-4.076 1.573l-0.084 0.014c-1.2-1.279-2.9-2.076-4.787-2.076-3.622 0-6.558 2.936-6.558 6.558 0 0.001 0 0.003 0 0.004v-0c0 0.52 0.043 1.021 0.152 1.496-5.454-0.266-10.28-2.88-13.522-6.861-0.564 0.949-0.899 2.092-0.902 3.313v0.001c0 2.272 1.171 4.286 2.914 5.451-1.091-0.030-2.107-0.325-2.994-0.823l0.033 0.017v0.072c0.003 3.165 2.236 5.807 5.213 6.44l0.043 0.008c-0.499 0.136-1.071 0.215-1.662 0.215-0.020 0-0.041-0-0.061-0l0.003 0c-0.419 0-0.843-0.024-1.242-0.112 0.85 2.598 3.261 4.509 6.13 4.57-2.215 1.746-5.045 2.8-8.122 2.8-0.004 0-0.008 0-0.013 0h0.001c-0.018 0-0.040 0-0.062 0-0.531 0-1.055-0.034-1.569-0.099l0.061 0.006c2.826 1.846 6.287 2.944 10.004 2.944 0.021 0 0.042-0 0.063-0h-0.003c12.072 0 18.672-10 18.672-18.669 0-0.288-0.010-0.57-0.024-0.848 1.299-0.936 2.39-2.064 3.258-3.355l0.030-0.047z"></path>
</symbol>
</defs>
<symbol id="icon-email-black" viewBox="0 0 32 32">
<path d="M26.667 5.333h-21.333c-1.467 0-2.653 1.2-2.653 2.667l-0.013 16c0 1.467 1.2 2.667 2.667 2.667h21.333c1.467 0 2.667-1.2 2.667-2.667v-16c0-1.467-1.2-2.667-2.667-2.667zM26.133 11l-9.427 5.893c-0.427 0.267-0.987 0.267-1.413 0l-9.427-5.893c-0.333-0.213-0.533-0.573-0.533-0.96 0-0.893 0.973-1.427 1.733-0.96l8.933 5.587 8.933-5.587c0.76-0.467 1.733 0.067 1.733 0.96 0 0.387-0.2 0.747-0.533 0.96z"></path>
</symbol>
<symbol id="icon-person-black" viewBox="0 0 32 32">
<path d="M16 16c2.947 0 5.333-2.387 5.333-5.333s-2.387-5.333-5.333-5.333c-2.947 0-5.333 2.387-5.333 5.333s2.387 5.333 5.333 5.333zM16 18.667c-3.56 0-10.667 1.787-10.667 5.333v1.333c0 0.733 0.6 1.333 1.333 1.333h18.667c0.733 0 1.333-0.6 1.333-1.333v-1.333c0-3.547-7.107-5.333-10.667-5.333z"></path>
</symbol>
<symbol id="icon-icon-check" viewBox="0 0 34 32">
<path fill="#fff" style="fill: var(--color1, #fff); stroke: var(--color1, #fff)" stroke="#fff" stroke-linejoin="miter" stroke-linecap="butt" stroke-miterlimit="4" stroke-width="0.4267" d="M8.442 16.537l-0.147-0.14-2.205 2.088 7.767 7.41 16.318-15.567-2.19-2.089-14.128 13.465-5.416-5.167z"></path>
</symbol>
<symbol id="icon-phone-black" viewBox="0 0 32 32">
<path d="M24.882 19.773l-3.268-0.373c-0.785-0.090-1.557 0.18-2.11 0.733l-2.367 2.367c-3.641-1.853-6.626-4.825-8.478-8.478l2.38-2.38c0.553-0.553 0.823-1.325 0.733-2.11l-0.373-3.242c-0.154-1.299-1.248-2.277-2.56-2.277h-2.226c-1.454 0-2.663 1.209-2.573 2.663 0.682 10.987 9.469 19.761 20.443 20.443 1.454 0.090 2.663-1.119 2.663-2.573v-2.226c0.013-1.3-0.965-2.393-2.264-2.547z"></path>
</symbol>
<symbol id="icon-icon-send" viewBox="0 0 32 32">
<path fill="#fff" style="fill: var(--color1, #fff)" d="M32 0l-32 18 10.227 3.788 15.773-14.788-11.998 16.186 0.010 0.004-0.012-0.004v8.814l5.735-6.691 7.265 2.691 5-28z"></path>
</symbol>
<symbol id="icon-close-black" viewBox="0 0 32 32">
<path d="M26.667 7.303l-1.97-1.97-7.808 7.808-7.808-7.808-1.97 1.97 7.808 7.808-7.808 7.808 1.97 1.97 7.808-7.808 7.808 7.808 1.97-1.97-7.808-7.808 7.808-7.808z"></path>
</symbol>
<symbol id="icon-close" viewBox="0 0 32 32">
<path d="M31.439 3.166l-3.166-3.166-12.553 12.553-12.553-12.553-3.166 3.166 12.553 12.553-12.553 12.553 3.166 3.166 12.553-12.553 12.553 12.553 3.166-3.166-12.553-12.553 12.553-12.553z"></path>
</symbol>
<symbol id="icon-menu" viewBox="0 0 48 32">
<path d="M0 5.333v-5.333h48v5.333h-48zM0 18.667h48v-5.333h-48v5.333zM0 32h48v-5.333h-48v5.333z"></path>
</symbol>
</svg>